<svg width="80" height="80" viewBox="0 0 80 80" fill="none" 
    xmlns="http://www.w3.org/2000/svg" class="secondary">
    <path d="M40 8C31.5131 8 23.3737 11.3714 17.3726 17.3726C11.3714 23.3738 8 31.5131 8 40C8 48.4869 11.3714 56.6262 17.3726 62.6274C23.3737 68.6286 31.5131 72 40 72C48.4869 72 56.6263 68.6286 62.6274 62.6274C68.6286 56.6262 72 48.4869 72 40C72 31.5131 68.6286 23.3738 62.6274 17.3726C56.6263 11.3714 48.4869 8 40 8V8ZM43.856 60.1733H36.144V30.1067H43.856V60.1733ZM43.856 26.4213H36.144V19.8267H43.856V26.4213Z" fill="#ffffff"></path>
</svg>