<svg xmlns="http://www.w3.org/2000/svg" x="0px" y="0px" width="48" height="48" viewBox="0 0 172 172" style=" fill:#000000;">
    <g fill="none" fill-rule="nonzero" stroke="none" stroke-width="1" stroke-linecap="butt" stroke-linejoin="miter" stroke-miterlimit="10" stroke-dasharray="" stroke-dashoffset="0" font-family="none" font-weight="none" font-size="none" text-anchor="none" style="mix-blend-mode: normal">
        <path d="M0,172v-172h172v172z" fill="none"></path>
        <g fill="#ffffff">
            <path d="M86,10.32c-11.35469,0 -20.64,9.28531 -20.64,20.64c0,11.35469 9.28531,20.64 20.64,20.64c11.35469,0 20.64,-9.28531 20.64,-20.64c0,-11.35469 -9.28531,-20.64 -20.64,-20.64zM86,17.2c7.64594,0 13.76,6.11406 13.76,13.76c0,7.64594 -6.11406,13.76 -13.76,13.76c-7.64594,0 -13.76,-6.11406 -13.76,-13.76c0,-7.64594 6.11406,-13.76 13.76,-13.76zM86,65.36c-11.35469,0 -20.64,9.28531 -20.64,20.64c0,11.35469 9.28531,20.64 20.64,20.64c11.35469,0 20.64,-9.28531 20.64,-20.64c0,-11.35469 -9.28531,-20.64 -20.64,-20.64zM86,72.24c7.64594,0 13.76,6.11406 13.76,13.76c0,7.64594 -6.11406,13.76 -13.76,13.76c-7.64594,0 -13.76,-6.11406 -13.76,-13.76c0,-7.64594 6.11406,-13.76 13.76,-13.76zM86,120.4c-11.35469,0 -20.64,9.28531 -20.64,20.64c0,11.35469 9.28531,20.64 20.64,20.64c11.35469,0 20.64,-9.28531 20.64,-20.64c0,-11.35469 -9.28531,-20.64 -20.64,-20.64zM86,127.28c7.64594,0 13.76,6.11406 13.76,13.76c0,7.64594 -6.11406,13.76 -13.76,13.76c-7.64594,0 -13.76,-6.11406 -13.76,-13.76c0,-7.64594 6.11406,-13.76 13.76,-13.76z"></path>
        </g>
    </g>
</svg>