<svg xmlns="http://www.w3.org/2000/svg" x="0px" y="0px" width="48" height="48" viewBox="0 0 172 172" style=" fill:#000000;">
    <g fill="none" fill-rule="nonzero" stroke="none" stroke-width="1" stroke-linecap="butt" stroke-linejoin="miter" stroke-miterlimit="10" stroke-dasharray="" stroke-dashoffset="0" font-family="none" font-weight="none" font-size="none" text-anchor="none" style="mix-blend-mode: normal">
        <path d="M0,172v-172h172v172z" fill="none"></path>
        <g fill="#ffffff">
            <path d="M50.16667,25.08333c0,0 -10.75,0 -17.91667,3.58333c-7.16667,3.58333 -7.16667,0 -10.75,7.16667c-3.58333,7.16667 -7.16667,10.75 -10.75,10.75c-3.58333,0 -10.75,0 -10.75,7.16667c0,7.16667 3.58333,7.16667 7.16667,3.58333c3.58333,-3.58333 14.33333,7.16667 14.33333,10.75c0,3.58333 -3.58333,7.16667 3.58333,10.75c7.16667,3.58333 3.58333,10.75 7.16667,10.75c3.58333,0 10.75,7.16667 10.75,7.16667c0,0 3.88075,-6.36758 0.29742,-11.14417c-4.80883,-6.41058 -3.58333,-7.16667 0,-7.16667c3.58333,0 3.28592,0.39417 3.28592,-3.18917c0,-3.58333 3.58333,-10.75 7.16667,-10.75c3.58333,0 0,-7.16667 -3.58333,-7.16667c-3.58333,0 -7.16667,-7.16667 -3.58333,-7.16667c3.58333,0 3.58333,-3.58333 0,-7.16667c-3.58333,-3.58333 3.58333,-14.33333 3.58333,-14.33333c0,0 3.58333,-3.58333 0,-3.58333z"></path>
            <path d="M68.08333,28.66667c0,0 -10.75,0 -14.33333,3.58333c-3.58333,3.58333 -7.16667,7.16667 0,7.16667c7.16667,0 3.58333,7.16667 3.58333,10.75c0,3.58333 0,7.16667 7.16667,0c7.16667,-7.16667 7.16667,-10.75 7.16667,-14.33333c0,-3.58333 0,-7.16667 -3.58333,-7.16667z"></path>
            <path d="M50.16667,100.33333c0,0 -7.16667,-3.58333 -7.16667,7.16667c0,10.75 3.58333,10.75 3.58333,10.75c0,0 -3.58333,17.91667 -3.58333,21.5c0,3.58333 3.58333,10.75 7.16667,10.75c3.58333,0 0,-3.58333 0,-7.16667c0,-3.58333 0,-7.16667 3.58333,-10.75c3.58333,-3.58333 10.75,-17.91667 10.75,-21.5c0,-3.58333 -14.33333,-10.75 -14.33333,-10.75z"></path>
            <path d="M89.58333,86c0,0 -14.33333,0 -14.33333,15.2005c0,15.2005 10.75,3.80192 14.33333,7.60025c3.58333,3.80192 3.58333,12.814 3.58333,16.61592c0,3.80192 0,13.78508 3.58333,9.98675c3.58333,-3.79833 10.75,-11.40217 10.75,-15.2005c0,-3.79833 -3.58333,-7.60025 0,-11.40217c3.58333,-3.79833 3.58333,-18.99883 -17.91667,-22.80075z"></path>
            <path d="M96.79658,46.7195c-3.63708,-1.98158 -8.3205,0.72742 -10.98292,3.44717c-3.50808,3.58333 0,10.75 0,10.75c0,0 -14.0395,10.75 -7.01975,14.33333c7.01975,3.58333 11.01517,-3.08167 11.01517,-3.08167c0,0 4.72642,-0.3225 6.12392,4.0205c0,0 7.98367,-0.93883 7.98367,-9.89717c0,-8.95833 -7.16667,-7.16667 -7.16667,-12.54167c0,-7.16667 0.04658,-7.0305 0.04658,-7.0305z"></path>
            <path d="M170.03633,46.58333c-7.01975,-3.58333 -35.09517,-3.58333 -35.09517,-3.58333c0,0 7.01975,-7.16667 -3.50808,-7.16667c-10.52783,0 -24.56375,10.75 -31.5835,14.33333c-0.84567,-1.72717 -1.89917,-2.8165 -3.053,-3.44717c-1.5695,2.48683 -3.94525,7.94067 -3.62992,10.61383c0.52675,4.47917 7.16667,3.58333 7.16667,10.75c0,7.16667 -4.40033,8.1055 -4.40033,8.1055c0.24008,0.74892 0.4085,1.591 0.4085,2.6445c0,7.16667 10.52783,14.33333 14.03592,10.75c3.50808,-3.58333 3.50808,-7.16667 3.50808,-7.16667c0,0 3.51167,14.33333 7.01975,14.33333c0,-7.16667 3.50808,-7.16667 3.50808,-7.16667c0,0 7.01975,7.16667 10.52783,7.16667c3.50808,0 3.50808,-7.16667 0,-10.75c7.01975,0 7.01975,-7.16667 7.01975,-10.75c7.01975,0 10.52783,-10.75 7.01975,-14.33333c3.50808,-7.16667 14.03592,-3.58333 14.03592,-3.58333c0,0 14.0395,-7.16667 7.01975,-10.75z"></path>
            <path d="M150.5,103.91667c-3.58333,0 -10.75,-3.58333 -10.75,-3.58333c0,0 -7.16667,3.58333 -3.58333,7.16667c3.58333,3.58333 10.75,-3.58333 14.33333,0z"></path>
            <path d="M150.5,107.5c3.58333,3.58333 3.58333,7.16667 7.16667,7.16667c3.58333,0 -3.58333,-10.75 -7.16667,-10.75z"></path>
            <path d="M161.25,139.75c-3.58333,7.16667 -6.9445,-2.63375 -10.97575,-3.75533c-3.45433,-0.96033 -10.30208,5.42875 -13.21533,-0.67367c-2.17867,-4.56875 2.69108,-9.90433 9.85775,-13.48767c7.16667,-3.58333 10.75,0 14.33333,7.16667c1.34375,2.96342 2.01742,7.44258 0,10.75z"></path>
            <path d="M114.89242,115.16833c0,0 -2.6875,3.58333 -1.5695,6.27083c1.118,2.6875 -1.12158,6.9445 -0.22575,8.0625c0.89583,1.118 3.80908,-0.67367 4.92708,-7.16667c1.118,-6.493 -1.56592,-10.97575 -3.13183,-7.16667z"></path>
            <ellipse cx="8.70448" cy="22.92339" transform="rotate(-30) scale(3.58333,3.58333)" rx="1" ry="0.5"></ellipse>
        </g>
    </g>
</svg>